<svg id="Layer_1" data-name="Layer 1" xmlns="http://www.w3.org/2000/svg" viewBox="0 0 260.64 103.47"><defs><style>.cls-1{fill:none;}.cls-2{fill:#002596;}.cls-3{fill:#cc092f;}.cls-4{fill:#c99900;}.cls-5{fill:#fff;}.cls-6{fill:#ffd200;}.cls-7{fill:#8b2346;}.cls-8{fill:#bf0000;}</style></defs><title>Artboard 1</title><g id="Layer_2" data-name="Layer 2"><g id="Logos"><rect class="cls-1" width="260.63" height="103.33"/><path d="M251.08,81.49v7.72h-1.89V81.49H247V79.83h6.45l-.27,1.71Z"/><path class="cls-2" d="M246.63,53.35c4.65-3.39,7.4-8.82,7-16.74,0-.45-.08-.48-.12-.93h-6.88Z"/><path class="cls-3" d="M248.31,26.45V7c-.87,0-1.71-.06-2.52-.14V26.45Z"/><path d="M7.24,83.3c0-2.52,1.37-3.61,3.68-3.61a3.79,3.79,0,0,1,2.91,1.08v1.44H12.25a1.31,1.31,0,0,0-1.42-.85c-1.23,0-1.75.61-1.75,1.9v2.65c0,1.31.56,1.87,1.73,1.87a1.81,1.81,0,0,0,1.35-.49v-2h-1.4V83.65h3.17v5.56H12.57l-.23-.64h0a2.75,2.75,0,0,1-2,.75c-2,0-3-1.14-3-3.52Z"/><path d="M15.83,79.83h1.89v7.72h3.81l-.28,1.71H15.83Z"/><path d="M22.64,83.43c0-2.45,1.28-3.78,3.66-3.78S30,81,30,83.43v2.13c0,2.44-1.28,3.78-3.66,3.78S22.64,88,22.64,85.56Zm3.66,4.24c1.25,0,1.77-.58,1.77-2V83.29c0-1.39-.52-2-1.77-2s-1.77.58-1.77,2V85.7C24.53,87.09,25.05,87.67,26.3,87.67Z"/><path d="M31.71,79.83h3.41c2.26,0,3.05,1,3.05,2.58a2.36,2.36,0,0,1-1.1,2.08h0a2.43,2.43,0,0,1,1.23,2c0,1.69-.92,2.71-3.06,2.71H31.71Zm1.83,1.63v2.23h2a1.24,1.24,0,0,0,.73-1.15,1,1,0,0,0-.91-1.09H33.54Zm0,3.82v2.35H35.3a1.07,1.07,0,0,0,1.16-1,.67.67,0,0,0,0-.2,1.3,1.3,0,0,0-.83-1.18Z"/><path d="M39.5,88.15l2.33-8.32h3l2.31,8.37v1.06H45.49l-.51-2a7.92,7.92,0,0,1-1.68.17,8.91,8.91,0,0,1-1.63-.15l-.52,2H39.5Zm2.58-2.49a7.1,7.1,0,0,0,1.22.11,6.72,6.72,0,0,0,1.26-.12L44,83.55c-.22-.87-.5-2.09-.5-2.09h-.38s-.27,1.22-.51,2.09Z"/><path d="M48.71,79.83H50.6v7.72h3.81l-.28,1.71H48.71Z"/><path d="M59.06,87.72V81.27l-.94-.17V79.83h3.76v1.32l-.94.17v6.45l.94.17v1.32H58.12V87.94Z"/><path d="M63.45,79.83h1.73l2.65,4.37c.22.36.75,1.43.75,1.43h0s-.07-1-.07-1.94V79.83h1.83v9.43H68.58v-.77l-2.37-3.86L65.28,83h0v6.25H63.45Z"/><path d="M72.39,79.83h1.74l2.7,4.37c.23.36.75,1.43.75,1.43h0s-.07-1-.07-1.94V79.83h1.83v9.43H77.52v-.77l-2.37-3.86c-.3-.54-.93-1.62-.93-1.62h0v6.25H72.39Z"/><path d="M81.1,83.43c0-2.45,1.28-3.78,3.66-3.78s3.66,1.33,3.66,3.78v2.13c0,2.44-1.28,3.78-3.66,3.78S81.1,88,81.1,85.56Zm3.66,4.24c1.25,0,1.77-.58,1.77-2V83.29c0-1.39-.52-2-1.77-2s-1.77.58-1.77,2V85.7C83,87.09,83.51,87.67,84.76,87.67Z"/><path d="M91.19,79.83l1.5,5.66c.24.87.46,2.09.46,2.09h.34s.25-1.22.48-2.09l1.48-5.66H97.1v1.11l-2.27,8.27h-3L89.6,80.89V79.83Z"/><path d="M97.49,88.15l2.34-8.32h3l2.31,8.37v1.06h-1.69l-.51-2a7.92,7.92,0,0,1-1.68.17,8.91,8.91,0,0,1-1.63-.15l-.52,2H97.46Zm2.58-2.49a7.1,7.1,0,0,0,1.22.11,6.72,6.72,0,0,0,1.26-.12l-.55-2.1c-.22-.87-.5-2.09-.5-2.09h-.38s-.27,1.22-.51,2.09Z"/><path d="M109.55,81.49v7.72h-1.89V81.49h-2.24V79.83h6.46l-.28,1.71Z"/><path d="M114,87.72V81.27L113,81.1V79.83h3.79v1.32l-.94.17v6.45l.94.17v1.32h-3.76V87.94Z"/><path d="M118,83.43c0-2.45,1.27-3.78,3.65-3.78s3.66,1.33,3.66,3.78v2.13c0,2.44-1.27,3.78-3.66,3.78S118,88,118,85.56Zm3.65,4.24c1.25,0,1.78-.58,1.78-2V83.29c0-1.39-.53-2-1.78-2s-1.77.58-1.77,2V85.7c0,1.39.53,2,1.77,2Z"/><path d="M127.09,79.83h1.74l2.69,4.42c.22.36.75,1.43.75,1.43h0s-.07-1-.07-1.94V79.83H134v9.43H132.2v-.77l-2.37-3.91L128.9,83h0v6.25h-1.83Z"/><path d="M140.12,84.25a3.53,3.53,0,0,1-.73-2.12c0-1.62,1-2.48,2.84-2.48s2.85.84,2.85,2.41c0,1.31-.76,2-2.25,2.6l1.37,1.41V84.55h1.63v1a4.88,4.88,0,0,1-.33,1.85l.69.71v1.1h-1.26l-.5-.5a4.21,4.21,0,0,1-2.42.63c-2.36,0-3.33-1-3.33-2.67A2.67,2.67,0,0,1,140.12,84.25ZM142,87.82a2.65,2.65,0,0,0,1.27-.25l-2.15-2.16a1.34,1.34,0,0,0-.67,1.11c0,.87.56,1.31,1.55,1.31Zm-.31-4.32.31-.13c1-.43,1.27-.7,1.27-1.27a1,1,0,0,0-1.08-.94.94.94,0,0,0-1.07,1A2,2,0,0,0,141.73,83.5Z"/><path d="M150.65,79.83h6l-.28,1.71h-3.84V83.7H156v1.7h-3.45v2.15h4v1.71H150.7Z"/><path d="M158.2,79.83h1.73l2.69,4.42c.22.36.74,1.43.74,1.43h0s-.07-1-.07-1.94V79.83h1.83v9.43h-1.83v-.77l-2.37-3.86c-.3-.54-.93-1.62-.93-1.62h0v6.25h-1.82Z"/><path d="M170.69,81.49v7.72h-1.86V81.49h-2.25V79.83H173l-.28,1.71Z"/><path d="M174.39,79.83h6l-.28,1.71H176.3V83.7h3.45v1.7H176.3v2.15h3.95v1.71h-5.83Z"/><path d="M181.93,79.83h3.56c2,0,3.18,1,3.18,2.8a3,3,0,0,1-1.94,2.83,15.46,15.46,0,0,0,1.89,2.66v1.14h-1.44a21.3,21.3,0,0,1-2.35-3.66h-1v3.61h-1.9Zm4,4.12a1.23,1.23,0,0,0,.87-1.23,1.09,1.09,0,0,0-1-1.18.74.74,0,0,0-.21,0h-1.75V84Z"/><path d="M193.91,81.49v7.72H192V81.49h-2.2V79.83h6.46L196,81.54Z"/><path d="M196.31,88.15l2.31-8.32h3L204,88.2v1.06h-1.7l-.51-2a7.82,7.82,0,0,1-1.67.17,9,9,0,0,1-1.64-.15l-.51,2h-1.65Zm2.58-2.49a7.1,7.1,0,0,0,1.22.11,6.72,6.72,0,0,0,1.26-.12l-.56-2.1c-.22-.87-.5-2.09-.5-2.09h-.37s-.28,1.22-.51,2.09Z"/><path d="M206.25,87.72V81.27l-.94-.17V79.83h3.77v1.32l-.94.17v6.45l.94.17v1.32h-3.77V87.94Z"/><path d="M210.65,79.83h1.73l2.69,4.42c.22.36.74,1.43.74,1.43h0s-.07-1-.07-1.94V79.83h1.83v9.43h-1.83v-.77l-2.37-3.86c-.3-.54-.93-1.62-.93-1.62h0v6.25h-1.82Z"/><path d="M219.59,79.83h3.09l1.15,5c.2,1,.48,2.76.48,2.76h.08s.24-1.76.44-2.76l1.12-5H229v9.43h-1.82V84.52c0-.81.06-3.18.06-3.18h-.15l-.61,2.78-1.17,5.09h-2.08l-1.16-5.09c-.21-.91-.61-2.78-.61-2.78h-.14v7.87h-1.81Z"/><path d="M231,79.83h6l-.27,1.71H233V83.7h3.45v1.7H233v2.15h3.88v1.71H231Z"/><path d="M238.58,79.83h1.73L243,84.25c.22.36.74,1.43.74,1.43h0s-.07-1-.07-1.94V79.83h1.83v9.43h-1.83v-.77l-2.37-3.86c-.3-.54-.92-1.62-.92-1.62h0s0,.86,0,1.78v4.47h-1.83Z"/><path d="M45.83,93.91h3.49c2.11,0,3.19,1,3.19,3a3.2,3.2,0,0,1-2.07,3H47.71v3.45H45.83Zm4,4.27a1.37,1.37,0,0,0,.8-1.36,1.14,1.14,0,0,0-1.05-1.21H47.71v2.56Z"/><path d="M53.06,102.28l2.32-8.37h3l2.31,8.37v1.06H59.05l-.51-2a7.92,7.92,0,0,1-1.68.17,8.91,8.91,0,0,1-1.63-.15l-.52,2H53.06Zm2.58-2.45a7.1,7.1,0,0,0,1.22.11,5.92,5.92,0,0,0,1.26-.13l-.55-2.09c-.22-.87-.5-2.09-.5-2.09h-.38s-.27,1.22-.51,2.09Z"/><path d="M62.27,93.91h3.56c2,0,3.18,1,3.18,2.8a3,3,0,0,1-1.94,2.83A15.46,15.46,0,0,0,69,102.2v1.14H67.52a21.66,21.66,0,0,1-2.38-3.61h-1v3.61H62.27Zm4,4.12a1.23,1.23,0,0,0,.87-1.23,1.09,1.09,0,0,0-1-1.18.74.74,0,0,0-.21,0H64.16V98Z"/><path d="M74.25,95.62v7.72H72.37V95.62H70.12V93.91h6.46l-.28,1.71Z"/><path d="M78,93.91h1.73l2.69,4.42c.22.36.74,1.43.74,1.43h0s-.07-1-.07-1.94V93.91h1.83v9.43h-1.8v-.77L80.7,98.71c-.3-.54-.93-1.62-.93-1.62h0v6.25H78Z"/><path d="M86.89,93.91h6l-.28,1.71H88.8v2.21h3.45v1.7H88.8v2.15h4v1.71H87Z"/><path d="M94.43,93.91H98c2,0,3.18,1,3.18,2.8a3,3,0,0,1-1.94,2.83,15.46,15.46,0,0,0,1.89,2.66v1.14H99.68a21.66,21.66,0,0,1-2.38-3.61h-1v3.61H94.43Zm4,4.12a1.23,1.23,0,0,0,.87-1.23,1.09,1.09,0,0,0-1-1.18.74.74,0,0,0-.21,0H96.34V98Z"/><path d="M105.4,97.56c0-2.45,1.28-3.78,3.66-3.78s3.66,1.33,3.66,3.78v2.13c0,2.44-1.28,3.78-3.66,3.78s-3.66-1.33-3.66-3.78Zm3.66,4.24c1.25,0,1.77-.58,1.77-2V97.39c0-1.39-.52-2-1.77-2s-1.77.58-1.77,2v2.44c0,1.39.54,2,1.77,2Z"/><path d="M114.47,93.91h5.83L120,95.62h-3.67v2.21h3.31v1.7h-3.31v3.86h-1.88Z"/><path d="M124.54,93.91h5.83l-.28,1.71h-3.67v2.21h3.31v1.7h-3.31v3.86h-1.88Z"/><path d="M131.38,97.43c0-2.49,1.24-3.61,3.49-3.61a3.77,3.77,0,0,1,2.83,1.05v1.47h-1.54s-.11-.85-1.27-.85-1.62.61-1.62,1.9v2.44c0,1.29.38,1.9,1.62,1.9s1.27-.85,1.27-.85h1.54v1.47a3.78,3.78,0,0,1-2.83,1c-2.25,0-3.49-1.12-3.49-3.61Z"/><path d="M142.21,93.91h3.41c2.26,0,3,1,3,2.58a2.38,2.38,0,0,1-1.09,2.08h0a2.39,2.39,0,0,1,1.23,2c0,1.69-.93,2.71-3.06,2.71h-3.54ZM144,95.54v2.23h2a1.25,1.25,0,0,0,.74-1.15,1,1,0,0,0-.91-1.09H144Zm0,3.82v2.35h1.79a1.08,1.08,0,0,0,1.17-1,.61.61,0,0,0,0-.19,1.31,1.31,0,0,0-.84-1.18Z"/><path d="M150,102.28l2.31-8.37h3l2.31,8.37v1.06h-1.69l-.51-2a7.92,7.92,0,0,1-1.68.17,8.91,8.91,0,0,1-1.63-.15l-.51,2H150Zm2.58-2.49a7,7,0,0,0,1.21.11,6,6,0,0,0,1.27-.13l-.56-2.09c-.22-.87-.5-2.09-.5-2.09h-.37s-.28,1.22-.51,2.09Z"/><path d="M159.22,93.91h3.61c2,0,3.17,1,3.17,2.8a3,3,0,0,1-1.94,2.83,15.52,15.52,0,0,0,1.9,2.66v1.14h-1.44a21.11,21.11,0,0,1-2.39-3.61h-1v3.61h-1.88Zm4,4.12a1.24,1.24,0,0,0,.88-1.23,1.09,1.09,0,0,0-1-1.18.74.74,0,0,0-.21,0h-1.75V98Z"/><path d="M167.36,97.43c0-2.49,1.23-3.61,3.49-3.61a3.73,3.73,0,0,1,2.82,1.05v1.47h-1.53s-.11-.85-1.28-.85-1.62.61-1.62,1.9v2.44c0,1.29.39,1.9,1.62,1.9s1.28-.85,1.28-.85h1.53v1.47a3.76,3.76,0,0,1-2.82,1c-2.26,0-3.49-1.12-3.49-3.61Z"/><path d="M175.26,93.91h6L181,95.62h-3.81v2.21h3.45v1.7h-3.45v2.15h4v1.71h-5.84Z"/><path d="M182.83,93.91h1.88v7.72h3.81l-.27,1.71h-5.42Z"/><path d="M189.58,97.56c0-2.45,1.28-3.78,3.66-3.78s3.66,1.33,3.66,3.78v2.13c0,2.44-1.28,3.78-3.66,3.78s-3.66-1.33-3.66-3.78Zm3.66,4.24c1.25,0,1.77-.58,1.77-2V97.39c0-1.39-.52-2-1.77-2s-1.77.58-1.77,2v2.44c0,1.39.52,2,1.77,2Z"/><path d="M198.65,93.91h1.73l2.69,4.42c.22.36.75,1.43.75,1.43h0s-.07-1-.07-1.94V93.91h1.83v9.43h-1.83v-.77l-2.37-3.86c-.3-.54-.92-1.62-.92-1.62h0v6.25h-1.83Z"/><path d="M207.13,102.28l2.32-8.37h3l2.31,8.37v1.06h-1.69l-.51-2a7.92,7.92,0,0,1-1.68.17,8.91,8.91,0,0,1-1.63-.15l-.52,2h-1.6Zm2.58-2.49a7.1,7.1,0,0,0,1.22.11,5.92,5.92,0,0,0,1.26-.13l-.55-2.09c-.22-.87-.5-2.09-.5-2.09h-.38s-.27,1.22-.51,2.09Z"/><path class="cls-4" d="M238.2,1l.33.21c3.59,2.38,6.48,2.82,10.88,2.82a15.17,15.17,0,0,0,4.81-.85l.41-.14L256.72,6l-.22.29c-7.74,10.3-1.7,21.41,2.57,25.85l.4.41-.4.4c-.56.56-1.54,1.57-2.26,2.33l-.24.26v.88c.36,6.87-1.42,12.51-5.29,16.77-4.11,4.52-10.6,7.24-18.27,7.67h-.3l-.22.2a51.21,51.21,0,0,1-4,3.27l-.35.26-.34-.26c-.09-.06-2-1.51-4-3.27l-.22-.2h-.3c-7.67-.43-14.15-3.15-18.27-7.67-3.87-4.26-5.65-9.9-5.29-16.77V36h0v-.48l-.24-.26c-.68-.72-1.68-1.75-2.26-2.33l-.4-.4.4-.41c4.27-4.44,10.32-15.55,2.57-25.85L199.57,6l2.26-2.92.42.14a14.89,14.89,0,0,0,4.81.85c4.39,0,7.28-.44,10.88-2.82l.32-.21.33.22a16.35,16.35,0,0,0,9.64,3.22,16.35,16.35,0,0,0,9.64-3.22l.32-.22"/><path class="cls-5" d="M204.64,26.45c2.43-5.57,3.33-12.72-.75-19.7a17.83,17.83,0,0,0,3.18.29c4.17,0,7.46-.38,11.16-2.47a18.76,18.76,0,0,0,20,0c3.7,2.09,7,2.47,11.17,2.47a17,17,0,0,0,3.18-.31c-4.09,7-3.19,14.15-.76,19.72H204.64"/><path class="cls-6" d="M251.83,26.45c-2.43-5.57-3.33-12.72.76-19.72a17,17,0,0,1-3.18.31c-4.18,0-7.47-.38-11.17-2.47a18.92,18.92,0,0,1-10,2.89h-.11v19Z"/><path class="cls-7" d="M239.27,56.76a22.41,22.41,0,0,0,7.37-3.41V35.68h-7.37Z"/><path class="cls-7" d="M209.83,53.35a22.07,22.07,0,0,0,7.36,3.41V35.68h-7.36Z"/><path class="cls-2" d="M202.83,36.61c-.4,7.92,2.35,13.35,7,16.75V35.68H203C202.92,36.13,202.89,36.16,202.83,36.61Z"/><path class="cls-7" d="M228.25,39.59a7,7,0,0,1,3.67,1v-5h-7.36v5A7,7,0,0,1,228.25,39.59Z"/><path class="cls-7" d="M228.25,53.46a6.88,6.88,0,0,1-3.69-1.08v5.45h7.36V52.4A6.91,6.91,0,0,1,228.25,53.46Z"/><path class="cls-2" d="M231.92,35.68v5a6.93,6.93,0,0,1,0,11.77v5.38a35.2,35.2,0,0,0,7.36-1.11v-21Z"/><path class="cls-2" d="M221.32,46.52a6.9,6.9,0,0,1,3.24-5.86v-5H217.2v21.1a34.59,34.59,0,0,0,7.36,1.07V52.38A6.9,6.9,0,0,1,221.32,46.52Z"/><path class="cls-3" d="M206.3,13a20.58,20.58,0,0,1,.19,7h7.15v6.44h7V20h7.49V13h-7.49V5.83a21.55,21.55,0,0,1-2.43-1.27,18.07,18.07,0,0,1-4.59,1.84V13Z"/><path class="cls-3" d="M243.26,26.45V6.5a18.25,18.25,0,0,1-2.52-.75v20.7Z"/><path class="cls-3" d="M233.17,26.45V6.83a18.28,18.28,0,0,1-2.53.51V26.45Z"/><path class="cls-3" d="M238.21,26.45V4.59a21.42,21.42,0,0,1-2.52,1.3V26.45Z"/><path d="M260.64,32.54l-1-1c-4.1-4.27-9.91-14.93-2.5-24.78l.58-.77-2.8-3.93-1,.35a14.3,14.3,0,0,1-4.53.8c-4.24,0-7-.42-10.42-2.68l-.8-.53-.79.55a15.52,15.52,0,0,1-9.16,3.07A15.53,15.53,0,0,1,219.05.55L218.26,0l-.79.53c-3.42,2.26-6.19,2.68-10.42,2.68a14.31,14.31,0,0,1-4.54-.8l-1-.35L198.71,6l.58.77c7.41,9.85,1.6,20.51-2.5,24.78l-1,1,1,1c.52.52,1.46,1.49,2.23,2.31V36a1.41,1.41,0,0,1,0,.29v.09c-.38,7.1,1.47,13,5.5,17.38,4.28,4.7,10.95,7.51,18.85,7.94,2,1.78,3.94,3.26,4,3.33l.84.62.85-.63c.08-.06,2.06-1.54,4-3.32,7.9-.43,14.58-3.24,18.85-7.94,4-4.43,5.88-10.28,5.5-17.38v-.53c.77-.82,1.71-1.79,2.24-2.31ZM256,35.31c.07.71,0,.69.08,1.1.84,15.84-10.19,23.31-23.52,23.87a50.24,50.24,0,0,1-4.28,3.57S226,62.18,224,60.28c-13.33-.56-24.36-8-23.52-23.87,0-.41,0-.39.08-1.1-.76-.81-2-2.13-2.7-2.79,4.79-5,10.36-16.32,2.62-26.61l1.64-2.16a15.51,15.51,0,0,0,5,.87c4.44,0,7.47-.44,11.2-2.91a17,17,0,0,0,10,3.33,17,17,0,0,0,10-3.33C242,4.18,245,4.62,249.47,4.62a15.79,15.79,0,0,0,5-.87l1.63,2.16c-7.74,10.29-2.16,21.65,2.62,26.61C258,33.18,256.72,34.5,256,35.31Z"/><path d="M202.75,35.66a1.08,1.08,0,0,1-.06.49c-.06.13,0,.23-.06.45-.31,6.09,1.21,11,4.52,14.65,3.8,4.16,10,6.53,17.79,6.86h6.6c7.83-.33,14-2.7,17.78-6.86,3.31-3.63,4.83-8.56,4.52-14.66a.89.89,0,0,0-.06-.44c-.06-.11,0-.24-.06-.49v-.19h-51Zm.3,1a.79.79,0,0,1,.06-.41c.06-.1,0-.19,0-.33h50.17v.33a1.13,1.13,0,0,0,.06.4c.3,6-1.18,10.8-4.41,14.34-3.72,4.08-9.77,6.4-17.49,6.72h-6.57c-7.72-.32-13.77-2.64-17.48-6.72-3.15-3.57-4.64-8.4-4.34-14.36Z"/><path d="M204.45,26.37l-.13.29h47.83l-.12-.29c-2.08-4.77-3.64-12,.75-19.53l.23-.41-.46.09a17.41,17.41,0,0,1-3.14.31c-4.27,0-7.45-.4-11.06-2.44l-.11-.07-.11.07a18.6,18.6,0,0,1-19.79,0l-.11-.07-.1.07c-3.62,2-6.8,2.44-11.06,2.44a18.43,18.43,0,0,1-3.14-.29l-.45-.08.23.39C208.08,14.35,206.52,21.6,204.45,26.37Zm23.91-18.7a19.22,19.22,0,0,0,9.89-2.84c3.64,2,6.86,2.43,11.16,2.43A17.16,17.16,0,0,0,252.18,7c-4.1,7.36-2.69,14.45-.67,19.22H228.36ZM204.29,7a17.27,17.27,0,0,0,2.78.22c4.29,0,7.51-.4,11.16-2.43a19.13,19.13,0,0,0,9.7,2.85V26.24h-23c2-4.77,3.47-11.86-.64-19.21Z"/><polygon points="222.2 29.2 222.2 27.81 217.46 27.81 217.46 34.37 218.89 34.37 218.89 31.66 220.82 31.66 220.82 30.27 218.89 30.27 218.89 29.2 222.2 29.2"/><path d="M227.74,29.12a1.16,1.16,0,0,1,1.09.71v.06l1.31-.61v-.06a2.5,2.5,0,0,0-2.41-1.47c-1.72,0-2.92,1.4-2.92,3.39s1.13,3.38,2.88,3.38A2.51,2.51,0,0,0,230.13,33V33l-1.19-.71v.06a1.28,1.28,0,0,1-1.2.78c-.87,0-1.45-.79-1.45-2S226.83,29.12,227.74,29.12Z"/><path d="M238.74,29.57c0-1.1-.79-1.76-2.11-1.76h-3v6.56h3A2.07,2.07,0,0,0,239,32.59a1.71,1.71,0,0,0-.84-1.76A1.48,1.48,0,0,0,238.74,29.57ZM235,29.13h1.56c.63,0,.72.29.72.54a.59.59,0,0,1-.66.54H235ZM236.65,33H235V31.49h1.63c.58,0,.85.24.85.75S237.21,33,236.65,33Z"/><path d="M228.21,53.57a7.09,7.09,0,1,0-7.09-7.09h0A7.1,7.1,0,0,0,228.21,53.57Zm0-.42A6.58,6.58,0,0,1,224.49,52a10.56,10.56,0,0,0,4.44-1.11c1.12-.67,2.32-1.51,2.53-2.62a1.76,1.76,0,0,1,2.38.73,1.83,1.83,0,0,1,.2.69A6.65,6.65,0,0,1,228.21,53.15ZM224.92,48a2.7,2.7,0,0,0,1.19.42,2.27,2.27,0,0,0,2.29-1.84,1.61,1.61,0,0,1,2.26.14,1.66,1.66,0,0,1,.29.48c.59,1.4-.64,2.41-2.23,3.35A10.51,10.51,0,0,1,224,51.63a6.7,6.7,0,0,1-1.76-2.23h.16A2.81,2.81,0,0,0,224.92,48Zm-1.09-3.36a15.44,15.44,0,0,1,.65-3.7,6.62,6.62,0,0,1,3.15-1.12,1.85,1.85,0,0,0,.08,2.61l.1.09a2,2,0,0,0-.5.55,2.57,2.57,0,0,0,.7,3.49A1.92,1.92,0,0,1,226.16,48C224.62,47.83,223.89,46.41,223.83,44.65Zm7.67,3.18a2.48,2.48,0,0,0-.18-.77,2,2,0,0,0-2.6-1.12,2.36,2.36,0,0,0-.51.3,2.16,2.16,0,0,1-.56-2.93c.77-1.23,2.53-.74,4.14.16a6.84,6.84,0,0,1,3,3.63,6.29,6.29,0,0,1-.52,2,2.15,2.15,0,0,0-2.76-1.27Zm.48-4.71c-1.16-.65-2.69-1.24-3.79-.78a1.47,1.47,0,0,1-.43-2,1.56,1.56,0,0,1,.51-.48,6.66,6.66,0,0,1,6.56,6.25A7.79,7.79,0,0,0,232,43.12Zm-8-1.8c-.12.49-.24.91-.34,1.35-.34,1.57-.34,3.93.94,5.1A2.48,2.48,0,0,1,222.35,49a2,2,0,0,1-.35,0,6.68,6.68,0,0,1,2-7.66Z"/><polygon class="cls-8" points="111.27 49.11 27.65 49.11 34.31 55.77 111.27 49.11"/><path class="cls-8" d="M35.39,22.16v1a8.44,8.44,0,0,0-4.85-1.56c-5.86,0-10.31,5.34-10.31,11.9s4.45,11.9,10.31,11.9a8.45,8.45,0,0,0,4.85-1.57v1h5.15V22.16ZM30.54,40c-2.89,0-5-2.85-5-6.44s2.11-6.44,5-6.44,4.93,2.85,4.93,6.44S33.43,40,30.54,40Z"/><path class="cls-8" d="M76.65,22.16V35.49a4.24,4.24,0,0,1-8.44.82,3.75,3.75,0,0,1,0-.82V22.16H63.06V35.49c0,5.47,3.74,9.92,9.21,9.92A7.88,7.88,0,0,0,76.65,44v.82h5.18V22.16Z"/><path class="cls-8" d="M124.64,44.83V31.52a4.24,4.24,0,1,1,8.44-.82,3.75,3.75,0,0,1,0,.82V44.83h5.15V31.52c0-5.46-3.74-9.91-9.22-9.91a7.88,7.88,0,0,0-4.37,1.4v-.85h-5.15V44.83Z"/><path class="cls-8" d="M5.39,44.83V36.06H9.2l6.63,8.77h6.75l-8-10.6A9.77,9.77,0,0,0,8.91,16.49H0V44.83Zm0-23H8.9a4.4,4.4,0,0,1,.42,8.79H5.39Z"/><path class="cls-8" d="M95.68,39.49A3.11,3.11,0,0,1,94,40a2.54,2.54,0,0,1-2.44-2.64s0-.09,0-.14V27.55h4.4V22.16h-4.4V16.51H86.38v5.65H83.66v5.39h2.72v9.79a7.75,7.75,0,0,0,7.4,8.08H94A10.48,10.48,0,0,0,99,44Z"/><polygon class="cls-8" points="53.35 32.8 62.18 22.16 54.96 22.16 48.78 30.07 48.78 14.63 43.48 14.63 43.48 44.85 48.78 44.85 48.78 35.53 56.38 44.85 63.6 44.85 53.35 32.8"/><path class="cls-8" d="M107.58,21.59c-6,0-10.24,5.23-10.24,11.92,0,7,5.37,11.92,10.75,11.92,2.71,0,6.19-.93,9.12-5.08l-4.55-2.62c-3.52,5.18-9.38,2.55-10.06-2.64h14.84C118.71,27,113.44,21.59,107.58,21.59Zm4.49,9h-9.24c1-5.33,8.24-5.63,9.24,0Z"/><rect x="166.57" width="0.91" height="65.61"/></g></g></svg>